<svg width="512" height="512" viewBox="0 0 512 512" fill="none" xmlns="http://www.w3.org/2000/svg">
<path d="M177.449 114.342C175.517 112.422 175.517 109.309 177.449 107.389L210.606 74.44C212.538 72.52 215.67 72.52 217.603 74.44L252.502 109.121C254.434 111.041 257.566 111.041 259.498 109.121L294.397 74.44C296.33 72.52 299.462 72.52 301.394 74.44L334.551 107.389C336.483 109.309 336.483 112.422 334.551 114.342L299.652 149.023C297.72 150.943 297.72 154.056 299.652 155.976L334.551 190.658C336.483 192.578 336.483 195.691 334.551 197.611L301.394 230.56C299.462 232.48 296.33 232.48 294.397 230.56L177.449 114.342Z" fill="white"/>
<path d="M67.44 301.398C65.52 303.33 65.52 306.462 67.44 308.394L100.389 341.551C102.309 343.483 105.422 343.483 107.342 341.551L223.56 224.603C225.48 222.67 225.48 219.538 223.56 217.606L190.611 184.449C188.691 182.517 185.578 182.517 183.658 184.449L148.976 219.348C147.056 221.28 143.943 221.28 142.023 219.348L107.342 184.449C105.422 182.517 102.309 182.517 100.389 184.449L67.44 217.606C65.52 219.538 65.52 222.67 67.44 224.603L102.121 259.502C104.041 261.434 104.041 264.566 102.121 266.498L67.44 301.398Z" fill="white"/>
<path d="M334.551 411.659C336.483 413.578 336.483 416.691 334.551 418.61L301.394 451.561C299.462 453.48 296.33 453.48 294.397 451.561L259.498 416.88C257.566 414.958 254.434 414.958 252.502 416.88L217.603 451.561C215.67 453.48 212.538 453.48 210.606 451.561L177.449 418.61C175.517 416.691 175.517 413.578 177.449 411.659L212.348 376.977C214.28 375.057 214.28 371.944 212.348 370.024L177.449 335.342C175.517 333.422 175.517 330.309 177.449 328.389L210.606 295.44C212.538 293.52 215.67 293.52 217.603 295.44L334.551 411.659Z" fill="white"/>
<path d="M288.44 301.398C286.52 303.33 286.52 306.462 288.44 308.394L321.39 341.551C323.31 343.483 326.423 343.483 328.343 341.551L363.024 306.652C364.944 304.72 368.057 304.72 369.977 306.652L404.659 341.551C406.578 343.483 409.691 343.483 411.61 341.551L444.561 308.394C446.48 306.462 446.48 303.33 444.561 301.398L409.88 266.498C407.958 264.566 407.958 261.434 409.88 259.502L444.561 224.602C446.48 222.67 446.48 219.538 444.561 217.606L411.61 184.449C409.691 182.517 406.578 182.517 404.659 184.449L288.44 301.398Z" fill="white"/>
</svg>